<svg enable-background="new 93.445 222.14 635 150" height="150" viewBox="93.445 222.14 635 150" width="635" xmlns="http://www.w3.org/2000/svg"><path d="m318.021 309.427c0 2.598-.669 4.932-2.007 7.002s-3.296 3.691-5.874 4.863-5.635 1.758-9.17 1.758c-4.238 0-7.734-.801-10.488-2.402-1.953-1.152-3.541-2.689-4.761-4.613-1.221-1.924-1.831-3.795-1.831-5.611 0-1.055.366-1.957 1.099-2.709s1.665-1.129 2.798-1.129c.918 0 1.694.293 2.329.879.634.586 1.176 1.455 1.626 2.607.546 1.367 1.138 2.51 1.772 3.428s1.528 1.676 2.681 2.271c1.152.596 2.666.895 4.541.895 2.578 0 4.673-.602 6.284-1.803s2.417-2.699 2.417-4.496c0-1.426-.435-2.584-1.304-3.473s-1.992-1.566-3.369-2.035c-1.377-.471-3.218-.969-5.522-1.494-3.086-.725-5.669-1.568-7.749-2.535s-3.731-2.285-4.951-3.955c-1.221-1.67-1.831-3.745-1.831-6.226 0-2.363.645-4.463 1.934-6.299s3.154-3.247 5.596-4.233c2.441-.986 5.312-1.479 8.613-1.479 2.637 0 4.917.327 6.841.981 1.923.654 3.52 1.523 4.79 2.607s2.197 2.222 2.783 3.413.879 2.354.879 3.486c0 1.035-.366 1.968-1.099 2.798s-1.646 1.245-2.739 1.245c-.996 0-1.753-.249-2.271-.747s-1.08-1.313-1.685-2.446c-.781-1.621-1.719-2.886-2.812-3.794-1.094-.908-2.852-1.362-5.273-1.362-2.246 0-4.058.493-5.435 1.479s-2.065 2.173-2.065 3.56c0 .859.234 1.602.703 2.227s1.113 1.162 1.934 1.611 1.65.801 2.49 1.055c.839.254 2.227.625 4.16 1.113 2.421.566 4.614 1.191 6.577 1.875s3.633 1.514 5.01 2.489c1.377.977 2.451 2.213 3.223 3.707.771 1.492 1.156 3.324 1.156 5.492z" fill="#FFFFFF"/><path d="m354.789 306.791c0 2.383-.371 4.58-1.113 6.592-.743 2.012-1.816 3.74-3.223 5.186-1.407 1.445-3.086 2.555-5.039 3.324-1.953.771-4.15 1.158-6.592 1.158-2.422 0-4.6-.391-6.533-1.172s-3.608-1.898-5.024-3.354c-1.417-1.455-2.49-3.176-3.223-5.156-.733-1.982-1.099-4.176-1.099-6.578 0-2.422.371-4.639 1.113-6.65s1.806-3.729 3.193-5.155 3.066-2.524 5.039-3.296c1.973-.771 4.15-1.157 6.533-1.157 2.421 0 4.619.391 6.592 1.172s3.662 1.895 5.068 3.34 2.476 3.165 3.208 5.157 1.1 4.186 1.1 6.589zm-8.027 0c0-3.262-.718-5.801-2.153-7.617s-3.365-2.725-5.786-2.725c-1.563 0-2.94.405-4.131 1.216-1.191.81-2.109 2.007-2.754 3.589s-.967 3.428-.967 5.537c0 2.09.317 3.916.952 5.479.634 1.562 1.542 2.76 2.725 3.59 1.182.828 2.573 1.244 4.175 1.244 2.421 0 4.351-.912 5.786-2.738s2.153-4.353 2.153-7.575z" fill="#FFFFFF"/><path d="m389.77 313.148c0 .994-.298 2.061-.894 3.191-.596 1.133-1.504 2.213-2.725 3.238-1.221 1.023-2.759 1.85-4.614 2.475s-3.945.939-6.27.939c-4.941 0-8.799-1.441-11.572-4.322s-4.16-6.742-4.16-11.586c0-3.281.634-6.182 1.904-8.701 1.27-2.521 3.105-4.468 5.508-5.845s5.273-2.065 8.613-2.065c2.07 0 3.97.303 5.698.908s3.193 1.387 4.395 2.344 2.119 1.978 2.754 3.062.952 2.094.952 3.032c0 .957-.356 1.768-1.069 2.432s-1.577.996-2.593.996c-.664 0-1.216-.17-1.655-.512-.439-.344-.933-.895-1.479-1.656-.977-1.484-1.997-2.598-3.062-3.339-1.065-.742-2.417-1.113-4.058-1.113-2.363 0-4.268.923-5.713 2.769s-2.168 4.369-2.168 7.572c0 1.504.186 2.887.557 4.146.371 1.26.908 2.334 1.611 3.223s1.553 1.562 2.549 2.021 2.09.688 3.281.688c1.602 0 2.974-.371 4.116-1.113 1.142-.74 2.153-1.875 3.032-3.396.488-.898 1.016-1.604 1.582-2.109.566-.508 1.26-.762 2.08-.762.977 0 1.787.371 2.432 1.113.645.739.968 1.53.968 2.37z" fill="#FFFFFF"/><path d="m400.785 286.81c-1.113 0-2.065-.342-2.856-1.025s-1.187-1.65-1.187-2.9c0-1.133.405-2.065 1.216-2.798s1.753-1.099 2.827-1.099c1.035 0 1.953.332 2.754.996s1.201 1.631 1.201 2.9c0 1.23-.391 2.192-1.172 2.886s-1.709 1.04-2.783 1.04zm3.955 8.261v23.114c0 1.604-.381 2.812-1.143 3.635-.762.82-1.729 1.229-2.9 1.229s-2.124-.42-2.856-1.26-1.099-2.041-1.099-3.604v-22.881c0-1.582.366-2.773 1.099-3.574s1.685-1.201 2.856-1.201 2.139.4 2.9 1.201 1.143 1.916 1.143 3.341z" fill="#FFFFFF"/><path d="m433.216 318.539c-1.934 1.504-3.803 2.631-5.609 3.383s-3.832 1.129-6.078 1.129c-2.052 0-3.854-.406-5.406-1.217s-2.749-1.908-3.589-3.295-1.26-2.891-1.26-4.512c0-2.189.693-4.055 2.08-5.598s3.291-2.578 5.713-3.104c.508-.117 1.768-.381 3.778-.791 2.012-.41 3.736-.787 5.172-1.129s2.992-.756 4.674-1.244c-.1-2.109-.523-3.658-1.275-4.645s-2.309-1.479-4.672-1.479c-2.031 0-3.561.283-4.586.85s-1.904 1.416-2.637 2.549-1.25 1.881-1.553 2.24c-.303.361-.952.543-1.948.543-.898 0-1.675-.289-2.329-.863-.654-.576-.981-1.314-.981-2.213 0-1.406.498-2.773 1.494-4.102s2.549-2.422 4.658-3.281 4.735-1.289 7.882-1.289c3.516 0 6.279.415 8.291 1.245s3.432 2.144 4.262 3.94 1.246 4.18 1.246 7.147c0 1.875-.006 3.469-.016 4.775-.01 1.309-.023 2.764-.043 4.365 0 1.504.248 3.07.746 4.701.498 1.633.746 2.682.746 3.15 0 .82-.385 1.566-1.156 2.24s-1.646 1.012-2.621 1.012c-.82 0-1.631-.387-2.434-1.158-.801-.767-1.65-1.885-2.549-3.349zm-.527-11.573c-1.172.43-2.877.883-5.111 1.361-2.236.479-3.785.83-4.645 1.055-.859.227-1.68.664-2.461 1.318s-1.172 1.566-1.172 2.74c0 1.211.459 2.24 1.377 3.09s2.12 1.273 3.604 1.273c1.582 0 3.043-.346 4.381-1.039s2.318-1.588 2.943-2.682c.723-1.211 1.084-3.203 1.084-5.977z" fill="#FFFFFF"/><path d="m448.656 318.187v-34.688c0-1.602.355-2.812 1.068-3.633.715-.821 1.676-1.23 2.887-1.23s2.188.405 2.93 1.216 1.113 2.026 1.113 3.647v34.688c0 1.621-.375 2.838-1.127 3.646-.752.811-1.725 1.217-2.916 1.217-1.172 0-2.123-.42-2.855-1.26s-1.1-2.04-1.1-3.603z" fill="#FFFFFF"/><g fill="#E95E30"><path d="m498.812 322.318h-13.125c-1.895 0-3.246-.426-4.059-1.275-.811-.848-1.215-2.201-1.215-4.057v-32.286c0-1.895.414-3.257 1.244-4.087s2.174-1.245 4.027-1.245h13.916c2.053 0 3.828.127 5.332.381s2.854.742 4.043 1.465c1.018.605 1.914 1.372 2.695 2.3s1.377 1.953 1.787 3.076.615 2.31.615 3.56c0 4.297-2.148 7.441-6.445 9.434 5.646 1.797 8.467 5.293 8.467 10.488 0 2.402-.615 4.564-1.846 6.488-1.23 1.926-2.891 3.346-4.98 4.264-1.309.547-2.811.934-4.512 1.158-1.698.223-3.678.336-5.944.336zm-9.697-36.417v11.104h7.969c2.168 0 3.844-.205 5.025-.615 1.18-.41 2.084-1.191 2.709-2.344.488-.82.732-1.738.732-2.754 0-2.168-.771-3.608-2.314-4.321s-3.896-1.069-7.061-1.069zm9.052 17.345h-9.053v12.539h9.346c5.879 0 8.818-2.119 8.818-6.357 0-2.168-.762-3.74-2.285-4.717s-3.798-1.465-6.826-1.465z"/><path d="m531.009 311.507v6.68c0 1.621-.381 2.838-1.143 3.646-.762.811-1.729 1.217-2.9 1.217-1.15 0-2.1-.41-2.842-1.23s-1.113-2.031-1.113-3.633v-22.266c0-3.594 1.299-5.391 3.896-5.391 1.328 0 2.285.42 2.871 1.26s.908 2.08.967 3.721c.957-1.641 1.938-2.881 2.943-3.721 1.008-.84 2.35-1.26 4.029-1.26 1.678 0 3.311.42 4.893 1.26s2.373 1.953 2.373 3.34c0 .977-.338 1.782-1.012 2.417-.674.634-1.4.953-2.182.953-.293 0-1.002-.182-2.125-.542-1.123-.361-2.113-.542-2.973-.542-1.174 0-2.131.308-2.871.922-.742.615-1.318 1.529-1.73 2.74-.41 1.211-.691 2.65-.85 4.32-.155 1.67-.231 3.705-.231 6.109z"/><path d="m577.005 306.791c0 2.383-.371 4.58-1.113 6.592-.74 2.012-1.814 3.74-3.223 5.186-1.406 1.445-3.086 2.555-5.039 3.324-1.953.771-4.15 1.158-6.592 1.158-2.422 0-4.6-.391-6.533-1.172-1.932-.781-3.607-1.898-5.023-3.354s-2.49-3.176-3.223-5.156c-.732-1.982-1.1-4.176-1.1-6.578 0-2.422.371-4.639 1.113-6.65.742-2.01 1.807-3.729 3.193-5.155 1.385-1.426 3.066-2.524 5.039-3.296s4.15-1.157 6.533-1.157c2.422 0 4.619.391 6.592 1.172s3.662 1.895 5.068 3.34c1.404 1.445 2.475 3.165 3.207 5.157s1.101 4.186 1.101 6.589zm-8.027 0c0-3.262-.717-5.801-2.152-7.617s-3.363-2.725-5.785-2.725c-1.562 0-2.939.405-4.131 1.216-1.193.81-2.109 2.007-2.754 3.589-.646 1.582-.969 3.428-.969 5.537 0 2.09.318 3.916.953 5.479s1.543 2.76 2.725 3.59c1.182.828 2.572 1.244 4.176 1.244 2.422 0 4.35-.912 5.785-2.738s2.152-4.353 2.152-7.575z"/><path d="m583.744 291.233h.879v-4.805c0-1.289.035-2.3.104-3.032s.26-1.362.57-1.89c.312-.547.762-.991 1.35-1.333.586-.342 1.238-.513 1.963-.513 1.016 0 1.934.381 2.754 1.143.547.508.893 1.128 1.039 1.86s.221 1.772.221 3.12v5.449h2.93c1.133 0 1.996.269 2.594.806.596.537.893 1.226.893 2.065 0 1.074-.424 1.826-1.273 2.256s-2.064.645-3.646.645h-1.494v14.707c0 1.25.043 2.213.131 2.887s.322 1.221.703 1.641 1.002.631 1.861.631c.469 0 1.104-.084 1.902-.25.801-.166 1.428-.248 1.875-.248.646 0 1.227.258 1.744.775s.775 1.156.775 1.92c0 1.287-.703 2.273-2.109 2.959-1.406.684-3.428 1.023-6.062 1.023-2.5 0-4.396-.42-5.686-1.26s-2.133-2.002-2.533-3.486c-.4-1.482-.602-3.467-.602-5.945v-15.353h-1.055c-1.152 0-2.031-.273-2.637-.82s-.908-1.24-.908-2.08.316-1.528.951-2.065c.635-.538 1.555-.807 2.766-.807z"/><path d="m612.367 283.499v11.865c1.016-1.172 2.008-2.1 2.975-2.783s2.035-1.196 3.207-1.538 2.434-.513 3.779-.513c2.031 0 3.834.43 5.406 1.289 1.57.859 2.807 2.109 3.705 3.75.566.957.947 2.026 1.143 3.208.197 1.182.293 2.545.293 4.088v15.32c0 1.604-.365 2.812-1.098 3.635-.734.82-1.705 1.229-2.916 1.229-2.637 0-3.955-1.621-3.955-4.863v-13.506c0-2.559-.381-4.525-1.143-5.902s-2.207-2.065-4.336-2.065c-1.426 0-2.711.405-3.854 1.216-1.143.812-1.996 1.919-2.562 3.326-.43 1.191-.645 3.311-.645 6.357v10.574c0 1.582-.357 2.789-1.07 3.619s-1.703 1.244-2.973 1.244c-2.639 0-3.955-1.621-3.955-4.863v-34.687c0-1.621.346-2.837 1.039-3.647s1.666-1.216 2.916-1.216c1.27 0 2.26.41 2.973 1.23.713.819 1.071 2.031 1.071 3.633z"/><path d="m663.109 308.753h-15.645c.02 1.816.385 3.418 1.098 4.805.715 1.387 1.66 2.432 2.844 3.135 1.182.703 2.484 1.055 3.91 1.055.957 0 1.83-.111 2.621-.336.791-.227 1.559-.576 2.301-1.055.742-.48 1.426-.992 2.051-1.539s1.436-1.289 2.432-2.227c.41-.352.996-.527 1.758-.527.82 0 1.484.225 1.992.674s.764 1.084.764 1.904c0 .723-.283 1.566-.852 2.533-.566.967-1.42 1.896-2.562 2.783-1.143.889-2.578 1.627-4.307 2.213s-3.717.879-5.963.879c-5.137 0-9.131-1.465-11.98-4.395-2.852-2.932-4.277-6.904-4.277-11.924 0-2.363.352-4.557 1.055-6.578s1.729-3.755 3.076-5.2c1.348-1.445 3.008-2.554 4.98-3.325 1.971-.771 4.16-1.157 6.561-1.157 3.125 0 5.807.659 8.043 1.978s3.91 3.022 5.023 5.111c1.113 2.09 1.67 4.219 1.67 6.387 0 2.012-.576 3.314-1.729 3.912s-2.774.894-4.864.894zm-15.645-4.541h14.502c-.193-2.734-.932-4.781-2.211-6.138-1.279-1.358-2.965-2.036-5.055-2.036-1.992 0-3.627.688-4.906 2.064-1.279 1.378-2.056 3.415-2.33 6.11z"/><path d="m684.378 311.507v6.68c0 1.621-.381 2.838-1.143 3.646-.762.811-1.729 1.217-2.9 1.217-1.152 0-2.1-.41-2.842-1.23s-1.113-2.031-1.113-3.633v-22.266c0-3.594 1.299-5.391 3.896-5.391 1.328 0 2.285.42 2.871 1.26s.908 2.08.967 3.721c.957-1.641 1.938-2.881 2.943-3.721s2.35-1.26 4.029-1.26c1.678 0 3.311.42 4.893 1.26s2.373 1.953 2.373 3.34c0 .977-.338 1.782-1.012 2.417-.674.634-1.4.953-2.182.953-.293 0-1.002-.182-2.125-.542-1.123-.361-2.113-.542-2.975-.542-1.172 0-2.129.308-2.869.922-.742.615-1.318 1.529-1.73 2.74-.41 1.211-.693 2.65-.85 4.32s-.231 3.705-.231 6.109z"/><path d="m726.976 312.591c0 2.207-.535 4.096-1.609 5.668s-2.662 2.766-4.762 3.574c-2.1.811-4.652 1.217-7.66 1.217-2.871 0-5.332-.439-7.385-1.318-2.051-.879-3.562-1.979-4.541-3.297-.977-1.316-1.465-2.641-1.465-3.969 0-.879.312-1.631.939-2.256.625-.625 1.416-.938 2.373-.938.84 0 1.482.203 1.934.613.449.41.879.986 1.289 1.73.82 1.426 1.801 2.49 2.943 3.191 1.143.703 2.699 1.057 4.674 1.057 1.602 0 2.914-.357 3.939-1.07s1.537-1.527 1.537-2.445c0-1.406-.531-2.432-1.596-3.076-1.066-.645-2.818-1.26-5.26-1.846-2.754-.684-4.994-1.4-6.725-2.152-1.729-.754-3.109-1.744-4.145-2.975-1.037-1.23-1.553-2.744-1.553-4.541 0-1.602.479-3.115 1.436-4.542.957-1.426 2.367-2.562 4.232-3.413s4.115-1.274 6.754-1.274c2.068 0 3.93.215 5.58.645s3.027 1.006 4.131 1.729 1.943 1.523 2.52 2.402c.578.879.865 1.738.865 2.578 0 .917-.309 1.669-.924 2.255s-1.488.881-2.621.881c-.82 0-1.52-.234-2.096-.703-.576-.471-1.234-1.172-1.979-2.109-.604-.781-1.316-1.406-2.139-1.875-.82-.469-1.934-.703-3.34-.703-1.445 0-2.646.308-3.604.923-.959.615-1.436 1.381-1.436 2.3 0 .84.352 1.527 1.055 2.064s1.65.982 2.842 1.334 2.832.781 4.922 1.289c2.48.605 4.508 1.328 6.078 2.168 1.572.84 2.766 1.83 3.574 2.973.815 1.146 1.223 2.446 1.223 3.911z"/><path d="m259.582 276.172c-5.882-9.276-13.93-14.338-26.346-16.877-.113-9.269-3-14.791-5.883-19.47-9.852-16.006-31.508-19.47-45.744-10.873l-30.344 18.83-36.315 22.36-.192-.316.146.246c-15.609 9.604-25.983 28.541-13.92 48.396 9.078 14.744 30.683 23.129 48.429 12.041 5.159-3.178 11.904-3.771 16.448 3.6 3.911 6.062.939 12.803-5.508 16.096l13.216 21.184c16.862-10.043 25.747-31.109 14.099-50.031-11.505-18.68-34.991-20.488-49.168-11.586-5.158 3.182-13.271 1.564-16.521-3.717-4.19-7.082-.744-12.767 4.906-16.247l-.027-.046 36.022-22.186 29.034-17.466c14.037-8.647 26.598 10.102 11.883 18.999l-7.316 4.672 11.983 19.451 12.998-7.838c12.922-7.958 25.263 10.416 11.429 19.104l-34.1 21 12.582 20.428 37.938-23.021c10.22-6.294 21.838-28.218 10.271-46.733z"/></g></svg>